<svg xmlns="http://www.w3.org/2000/svg" viewBox="0 0 360 360"><defs><linearGradient id="body" x2=".8" y2="1"><stop stop-color="#fff4dc"/><stop offset="1" stop-color="#ffbadb"/></linearGradient></defs><ellipse cx="180" cy="316" rx="98" ry="13" fill="#b7a3f4" opacity=".18"/><path d="M234 164q55-34 58 25-21-12-39 14" fill="#aadcc6" stroke="#719d9f" stroke-width="5"/><path d="m123 128-9-28 28 7 0-29 28 14 15-28 16 25" fill="#ffcea0" stroke="#e6ac81" stroke-width="4"/><path d="M115 123C78 166 83 250 127 281q36 23 89 0 38-25 39-77 21-15 17-45-3-40-61-36-27-34-62-22z" fill="#b3ecd0" stroke="#719d9f" stroke-width="5"/><ellipse cx="176" cy="242" rx="42" ry="40" fill="#fff4ce"/><path d="M115 275v25h36v-25m53 0v25h36v-30" fill="#a2dbc4" stroke="#719d9f" stroke-width="5" stroke-linejoin="round"/><path d="M215 211q-25-20-32 8" fill="none" stroke="#719d9f" stroke-width="7" stroke-linecap="round"/><g fill="#48354e"><ellipse cx="184.5" cy="155" rx="7" ry="10"/><ellipse cx="229.5" cy="155" rx="7" ry="10"/></g><g fill="#ff9ab9"><ellipse cx="169.5" cy="171" rx="12" ry="7"/><ellipse cx="244.5" cy="171" rx="12" ry="7"/></g><path d="M197 175 Q207 187 217 175" fill="none" stroke="#48354e" stroke-width="4" stroke-linecap="round"/><path d="M105 275l-21-29 28-18 22 18-9 30m30-4 18-31 26 29" fill="#fff1cf" stroke="#d7c2a6" stroke-width="4"/><g fill="#b8e8ff" stroke="#fff" stroke-width="3"><circle cx="287" cy="88" r="20"/><circle cx="310" cy="127" r="11"/></g><g fill="#fff2ad"><path d="m42 85 5 11 12 5-12 5-5 12-5-12-12-5 12-5z"/><path d="m314 190 4 9 10 4-10 4-4 10-4-10-10-4 10-4z"/></g></svg>