<svg xmlns="http://www.w3.org/2000/svg" viewBox="0 0 360 360" fill="none"><defs><linearGradient id="body" x1="100" y1="80" x2="245" y2="295" gradientUnits="userSpaceOnUse"><stop stop-color="#ffc2df"/><stop offset="1" stop-color="#a4b5ff"/></linearGradient><radialGradient id="glow"><stop stop-color="#a4b5ff" stop-opacity=".25"/><stop offset="1" stop-color="#a4b5ff" stop-opacity="0"/></radialGradient></defs><circle cx="180" cy="183" r="152" fill="url(#glow)"/><ellipse cx="180" cy="316" rx="94" ry="10" fill="#100d35" opacity=".25"/><g stroke-linecap="round" stroke-linejoin="round">
<defs><clipPath id="capeclip"><path d="M142 118h78l67 172q-105 35-213 0Z"/></clipPath><linearGradient id="rainbow" x1="80" y1="200" x2="280" y2="200" gradientUnits="userSpaceOnUse"><stop stop-color="#ffa4cb"/><stop offset=".22" stop-color="#ffd894"/><stop offset=".43" stop-color="#bce9ac"/><stop offset=".64" stop-color="#96e6f5"/><stop offset=".83" stop-color="#aaa6f4"/><stop offset="1" stop-color="#d49bec"/></linearGradient></defs>
<path d="M142 118h78l67 172q-105 35-213 0Z" fill="url(#rainbow)" stroke="#eee1ff" stroke-width="3"/>
<g clip-path="url(#capeclip)" stroke="#fff" stroke-opacity=".4" stroke-width="3"><path d="m151 121-38 183m54-185-16 188m43-188 16 188m-1-186 38 183"/></g>
<path d="M137 124c-23-57 16-88 43-88s67 31 43 88l-43 26Z" fill="#aba3ef" stroke="#e0d0ff" stroke-width="3"/><path d="M149 117c-12-39 13-63 31-63s43 24 31 63l-31 19Z" fill="#4a487c"/>
<path d="m140 119 40 23 42-23" stroke="#fff1ca" stroke-width="5"/><path d="m180 131 11 12-11 15-11-15Z" fill="#93f3dd" stroke="#fff0b6" stroke-width="2"/>
<path d="m112 253 5-10 5 10 11 2-8 7 2 11-10-5-10 5 2-11-8-7zm123 16 4-8 4 8 9 1-7 6 2 9-8-5-8 5 2-9-7-6z" fill="#fff8de"/>
</g><g fill="#ffc2df"><path d="m64 130 3-10 3 10 10 3-10 3-3 10-3-10-10-3Zm223-47 4-12 4 12 12 4-12 4-4 12-4-12-12-4Z"/><circle cx="84" cy="284" r="3"/><circle cx="274" cy="278" r="3"/></g></svg>