<svg xmlns="http://www.w3.org/2000/svg" viewBox="0 0 360 360" fill="none"><defs><linearGradient id="body" x1="120" y1="120" x2="240" y2="290"><stop stop-color="#fff7ff"/><stop offset="1" stop-color="#cfd1fa"/></linearGradient><linearGradient id="mane" x1="216" y1="119" x2="291" y2="238"><stop stop-color="#ffa9da"/><stop offset=".4" stop-color="#c5a9ff"/><stop offset=".7" stop-color="#9bd8fa"/><stop offset="1" stop-color="#83eadc"/></linearGradient><radialGradient id="glow"><stop stop-color="#8beddc" stop-opacity=".26"/><stop offset="1" stop-color="#8beddc" stop-opacity="0"/></radialGradient></defs>
<circle cx="180" cy="185" r="147" fill="url(#glow)"/><path d="M63 184a118 118 0 0 1 233 0" stroke="#f8adce" stroke-width="8" opacity=".5"/><path d="M74 184a107 107 0 0 1 211 0" stroke="#f7d49d" stroke-width="6" opacity=".5"/><path d="M83 184a98 98 0 0 1 194 0" stroke="#b4e8e0" stroke-width="6" opacity=".5"/>
<ellipse cx="180" cy="305" rx="99" ry="11" fill="#100d35" opacity=".3"/>
<path d="M117 203c-44-37-56-14-47 5s37 16 36 47c26-15 35-31 11-52z" fill="url(#mane)" stroke="#e7b9ff" stroke-width="2"/>
<path d="m120 233-9 57q12 9 24 0l16-49m52-4 10 53q13 7 24-2l-4-65" fill="url(#body)" stroke="#eee2ff" stroke-width="2"/>
<path d="M103 218c0-29 33-42 70-30l24-52c12-23 29-22 47-9l23 21 22 12c12 8 6 22-10 25l-37-3-11 48c-5 38-44 36-80 32-29-3-48-16-48-44z" fill="url(#body)" stroke="#fff1ff" stroke-width="2"/>
<path d="m220 126-2-33 23 26" fill="#eee2ff" stroke="#fff1ff" stroke-width="2"/><path d="m247 134 24-53 2 66" fill="#ffe6a5" stroke="#fff3ca" stroke-width="2"/><path d="m257 119 16 5m-12-16 12 4" stroke="#daa6ca" stroke-width="3"/>
<path d="M219 121c-25-6-38 15-31 36 11-8 21-6 17 9-7 20-3 35 15 43-3-24 22-27 18-49-2-11-13-17-19-39z" fill="url(#mane)" stroke="#edc4ff" stroke-width="2"/>
<path d="M232 178q11 11 20-2" stroke="#62608a" stroke-width="4" stroke-linecap="round"/><ellipse cx="260" cy="174" rx="7" ry="4" fill="#f5b4d0"/><path d="m111 285-1 8q12 8 25-1l1-7m77 0 1 9q12 5 24-4l-2-7" fill="#ab92e1"/>
<g fill="#fff0c8"><path d="m85 110 4-12 4 12 12 4-12 4-4 12-4-12-12-4zm204 122 4-12 4 12 12 4-12 4-4 12-4-12-12-4z"/><circle cx="151" cy="81" r="3"/><circle cx="67" cy="240" r="3"/><circle cx="272" cy="284" r="2"/></g></svg>
