<svg xmlns="http://www.w3.org/2000/svg" viewBox="0 0 360 360" fill="none"><defs><linearGradient id="paint" x1="95" y1="100" x2="260" y2="295" gradientUnits="userSpaceOnUse"><stop stop-color="#9aead7"/><stop offset="1" stop-color="#ffcfdf"/></linearGradient><radialGradient id="glow"><stop stop-color="#9aead7" stop-opacity=".25"/><stop offset="1" stop-color="#9aead7" stop-opacity="0"/></radialGradient></defs><circle cx="180" cy="183" r="152" fill="url(#glow)"/><ellipse cx="180" cy="320" rx="92" ry="9" fill="#100d35" opacity=".25"/><g stroke-linecap="round" stroke-linejoin="round"><ellipse cx="111" cy="284" rx="24" ry="29" fill="#685da3" stroke="#c7b7ed" stroke-width="4"/><ellipse cx="253" cy="276" rx="23" ry="28" fill="#685da3" stroke="#c7b7ed" stroke-width="4"/><path d="M66 233Q77 207 170 213L250 201Q289 212 288 244L242 277H109Q64 276 66 233Z" fill="url(#paint)" stroke="#c0fff0" stroke-width="4"/><path d="M97 223q26-14 67-9l35 12q-7 29-60 29q-54 1-42-32Z" fill="#ffcfdf" stroke="#ffeaf3" stroke-width="3"/><path d="M230 239L238 163" stroke="#b8b1f5" stroke-width="15"/><ellipse cx="239" cy="151" rx="43" ry="18" transform="rotate(-14 239 151)" fill="#4a659a" stroke="#9be7ed" stroke-width="10"/><path d="m210 152 56-4m-27 3 2 13" stroke="#b1f7ed" stroke-width="6"/><path d="M119 273l-4 16m115-19 16 13" stroke="#fff0bb" stroke-width="5"/><ellipse cx="194" cy="281" rx="18" ry="21" fill="#655a99" stroke="#c3b9e9" stroke-width="3"/><path d="M78 190q-16-13-31 1M71 172q-13-16-27-9" stroke="#ffe3a5" stroke-width="4"/><path d="m177 162 5-13 5 13 13 5-13 5-5 13-5-13-13-5" fill="#fff0bb"/></g><g fill="#ffcfdf"><path d="m58 128 3-9 3 9 9 3-9 3-3 9-3-9-9-3m234-65 4-12 4 12 12 4-12 4-4 12-4-12-12-4"/><circle cx="67" cy="292" r="3"/><circle cx="297" cy="282" r="3"/></g></svg>